<svg width="160" height="160" viewBox="0 0 160 160" fill="none" xmlns="http://www.w3.org/2000/svg">
<g clip-path="url(#clip0_3657_595)">
<rect width="160" height="160" rx="25" fill="white"/>
<path d="M0 80V160H80H160V80V-1.52588e-05H80H0V80ZM107.2 47.8V53.24L113.84 53.2C117.48 53.16 120.52 53.2 120.6 53.28C120.64 53.32 120.12 55.72 119.4 58.6L118.12 63.8L116.64 63.92L115.2 64.04V85.44L115.24 106.8L116.24 107.04C117.48 107.36 118 108.32 118 110.4C118 111.76 118.16 112.08 118.96 112.4C120.32 112.88 120.88 114.12 120.72 116.12L120.6 117.8L107.12 117.92L93.6 118V116.16C93.6 114.04 94.12 112.88 95.32 112.44C95.92 112.2 96.2 111.76 96.24 110.76C96.28 110 96.32 109.08 96.36 108.68C96.4 108.28 96.92 107.64 97.6 107.28L98.8 106.6V94.32C98.8 80.52 98.6 79.24 95.88 75.12C92.16 69.56 86.88 66.72 80.2 66.76C76 66.76 73.32 67.56 69.8 69.92C65.92 72.56 63.28 76.36 62.2 80.88C61.48 83.96 61.32 106.8 62 106.8C62.24 106.8 62.88 107.24 63.4 107.8C64.16 108.52 64.4 109.2 64.4 110.6C64.4 111.88 64.56 112.4 64.96 112.4C66.16 112.4 66.8 113.6 66.8 115.84V118H53.4H40V115.8C40 113.84 40.12 113.52 41.2 112.72C42.16 112 42.4 111.56 42.4 110.32C42.4 108.8 43.76 106.8 44.8 106.8C45.08 106.8 45.2 100.04 45.2 85.4V64H43.8C42.56 64 42.4 63.88 42.04 62.48C41.8 61.68 41.6 60.72 41.6 60.36C41.6 60 41.36 59 41.08 58.16C40.76 57.28 40.4 55.84 40.24 54.92L40 53.2L46.48 53.12L53 53L53.12 47.68L53.24 42.4H80.2H107.2V47.8Z" fill="#8A63D2"/>
</g>
<defs>
<clipPath id="clip0_3657_595">
<rect width="160" height="160" rx="25" fill="white"/>
</clipPath>
</defs>
</svg>
